# xmcd CD database file
#
# Track frame offsets:
#	150
#	13163
#	26600
#	41319
#	57169
#	70211
#	92814
#	108525
#	123962
#	137921
#	159812
#	176155
#	189804
#	203568
#	226688
#	243422
#	256632
#	271686
#	287534
#	303086
#	315267
#
# Disc length: 4473 seconds
#
# Revision: 0
# Processed by: cddbd v1.5.2PL0 Copyright (c) Steve Scherf et al.
# Submitted via: CDex 1.70beta2
#
DISCID=04117715
DTITLE=Henrique e Hernane - Para Ver e Ouvir
DYEAR=2008
DGENRE=Country
TTITLE0=Amor ou amizade
TTITLE1=Maluco por você
TTITLE2=Pra te dizer
TTITLE3=Por ti - Partic. Franco Levine
TTITLE4=Doido de amor
TTITLE5=Machuca demais - É tarde demais - Que se chama amor
TTITLE6=Te amo tanto
TTITLE7=Melhor deixar como está
TTITLE8=Ai que vontade que dá
TTITLE9=Não olhe assim - Quem é - Solidão - Quem sou eu sem ela
TTITLE10=Se eu tivesse asas
TTITLE11=Sina de namorada
TTITLE12=Marvada pinga (Zenaide) /
TTITLE13=Ladrão de mulher - Campeão - Falou e disse - Pagode em Brasilia
TTITLE14=Sintonia
TTITLE15=Alô - Partic. Leandra Leon
TTITLE16=Tô precisando de amor
TTITLE17=Deixa eu entrar
TTITLE18=Correnteza de emoção
TTITLE19=Doutor
TTITLE20=Sorriso mudo - Saudade dela - 60 dias apaixonado
EXTD=YEAR: 2008
EXTT0=
EXTT1=
EXTT2=
EXTT3=
EXTT4=
EXTT5=
EXTT6=
EXTT7=
EXTT8=
EXTT9=
EXTT10=
EXTT11=
EXTT12=
EXTT13=
EXTT14=
EXTT15=
EXTT16=
EXTT17=
EXTT18=
EXTT19=
EXTT20=
PLAYORDER=
